<svg xmlns="http://www.w3.org/2000/svg" viewBox="0 0 170.08 50">
  <defs>
    <linearGradient id="a" data-name="Unbenannter Verlauf" x1="8.33" y1="25.07" x2="48.33" y2="25.07" gradientUnits="userSpaceOnUse">
      <stop offset="0" stop-color="#ff006e"/>
      <stop offset="1" stop-color="#b82f67"/>
    </linearGradient>
  </defs>
  <circle cx="28.33" cy="25.07" r="20" fill="url(#a)"/>
  <path data-name="icon" d="M15.57 33.56V20.94c0-1.04.63-1.98 1.6-2.37l10.68-4.27c.3-.12.64-.12.95 0l10.68 4.27c.97.39 1.6 1.33 1.6 2.37v12.62c0 .53-.43.96-.96.96h-1.91a.96.96 0 0 1-.96-.96V23.04c0-.71-.57-1.28-1.28-1.28H20.66c-.71 0-1.28.57-1.28 1.28v10.52c0 .53-.43.96-.96.96h-1.91a.96.96 0 0 1-.96-.96Zm19.45.96H21.63a.96.96 0 0 1-.96-.96v-2.23h15.31v2.23c0 .53-.43.96-.96.96Zm-14.35-4.47V27.5h15.31v2.55H20.67Zm0-3.82v-3.19h15.31v3.19H20.67Z" fill="#fff"/>
  <text transform="translate(55.37 24.89)" font-family="Prelo-ExtraBold, Prelo" font-size="17.2" font-weight="700"><tspan x="0" y="0" letter-spacing="-.07em">W</tspan><tspan x="15.03" y="0" letter-spacing="0em">A</tspan><tspan x="26.33" y="0" letter-spacing=".02em">RE</tspan><tspan x="47.23" y="0" letter-spacing="0em">HO</tspan><tspan x="70.38" y="0" letter-spacing=".02em">U</tspan><tspan x="81.73" y="0" letter-spacing="0em">S</tspan><tspan x="92.14" y="0" letter-spacing=".02em">E</tspan></text>
  <path d="M55.74 36.64v-5.77h.45v2.57h3.22v-2.57h.44v5.77h-.44v-2.8h-3.22v2.8h-.45Zm7.45-2.92c0-1.59.44-2.93 2.36-2.93s2.35 1.34 2.35 2.93-.43 3.01-2.35 3.01-2.36-1.39-2.36-3.01Zm.47 0c0 1.31.27 2.63 1.89 2.63s1.88-1.32 1.88-2.63-.26-2.54-1.88-2.54c-1.62-.01-1.89 1.22-1.89 2.54Zm10.31 2.19h.02l2.15-5.03h.57v5.77h-.44v-4.9h-.03l-2.11 4.9h-.34l-2.1-4.9h-.02v4.9h-.44v-5.77h.58l2.16 5.03Zm8.95 0h.02l2.15-5.03h.57v5.77h-.44v-4.9h-.02l-2.11 4.9h-.35l-2.1-4.9h-.02v4.9h-.44v-5.77h.58l2.16 5.03Zm9.39.73v-5.77h.45v5.77h-.45Zm3.9 0v-5.77h.45l3.3 4.94h.02v-4.94h.43v5.77h-.44l-3.3-4.9h-.02v4.9h-.44Zm9.51-5.36v5.36h-.44v-5.36h-1.67v-.41h3.78v.41h-1.67Zm8.35 0h-3.03v2.16h2.65v.4h-2.65v2.4h3.07v.4h-3.52v-5.77h3.48v.41Zm6.89 5.36-1.54-2.43h-1.62v2.43h-.45v-5.77h2.29c1.09 0 1.65.75 1.65 1.66 0 .85-.5 1.51-1.41 1.6l1.59 2.5h-.51Zm-3.16-2.84h1.74c.78 0 1.31-.47 1.31-1.26 0-.73-.46-1.26-1.25-1.26h-1.8v2.52Zm10.37 1.22h-2.58l-.59 1.62h-.47l2.11-5.81h.55l2.04 5.81h-.49l-.57-1.62Zm-1.28-3.64-1.2 3.26h2.38l-1.17-3.26h-.01Zm7.52-.59c.63 0 1.25.08 1.91.28l-.1.38c-.86-.21-1.29-.25-1.77-.25-1.6 0-1.93 1.2-1.93 2.52 0 1.4.32 2.61 1.93 2.61.48 0 .92-.04 1.77-.25l.1.38c-.66.19-1.28.27-1.91.27-1.92 0-2.36-1.36-2.36-3.01s.44-2.93 2.36-2.93Zm7.1.49v5.36h-.44v-5.36h-1.67v-.41h3.78v.41h-1.67Zm4.86 5.36v-5.77h.45v5.77h-.45Zm6-.5 1.83-5.26h.47l-2.04 5.81h-.55l-2.11-5.81h.5l1.9 5.26Zm8.94-4.86h-3.03v2.16h2.65v.4h-2.65v2.4h3.07v.4h-3.52v-5.77h3.48v.41Z"/>
</svg>
